<svg width="167" height="168" viewBox="0 0 167 168" fill="none" xmlns="http://www.w3.org/2000/svg">
<path d="M1 35V134H17V150H34V167H133.5V150H151V134H166V35H151V18H133.5V1H34V18H17V35H1Z" fill="#FDC760" stroke="#1C1C1C"/>
<path d="M33.3333 1H133.333V17.6667H33.3333V1ZM16.6667 34.3333V17.6667H33.3333V34.3333H16.6667ZM16.6667 134.333V34.3333H0V134.333H16.6667ZM33.3333 151V134.333H16.6667V151H33.3333ZM133.333 151V167.667H33.3333V151H133.333ZM150 134.333V151H133.333V134.333H150ZM150 34.3333H166.667V134.333H150V34.3333ZM150 34.3333V17.6667H133.333V34.3333H150ZM75 26H91.6667V42.6667H116.667V59.3333H66.6667V76H116.667V126H91.6667V142.667H75V126H50V109.333H100V92.6667H50V42.6667H75V26Z" fill="black"/>
</svg>
